TITLE:   NLA098_LC1_8242013.COPY.01 
FCM: NON-DROP FRAME 
000001  A013C007_130724_R2LG             V     C        09:45:02:07 09:45:03:15 01:00:48:02 01:00:49:10 
*FROM CLIP NAME:  V1-0028_A013C007_130724_R2LG 
000002  B016C005_130724_R2M9             V     C        09:45:04:13 09:45:05:15 01:00:49:23 01:00:51:01 
*FROM CLIP NAME:  V1-0022_B016C005_130724_R2M9 
000003  A013C008_130724_R2LG             V     C        10:03:57:11 10:03:58:15 01:00:52:15 01:00:53:19 
*FROM CLIP NAME:  V1-0032_A013C008_130724_R2LG 
000004  B017C002_130724_R2M9             V     C        14:56:00:17 14:56:02:00 01:00:54:11 01:00:55:18 
*FROM CLIP NAME:  V1-0009_B017C002_130724_R2M9 
000005  A013C007_130724_R2LG             V     C        09:45:09:09 09:45:11:21 01:00:55:18 01:00:58:06 
*FROM CLIP NAME:  V1-0035_A013C007_130724_R2LG 
000006  B016C003_130724_R2M9             V     C        08:51:40:17 08:51:41:11 01:00:58:06 01:00:59:00 
*FROM CLIP NAME:  V1-0028_B016C003_130724_R2M9 
000007  AA087601                         V     C        08:39:35:08 08:39:36:13 01:01:03:12 01:01:04:17 
*FROM CLIP NAME:  V1-0040_AA087601 
000008  A013C003_130724_R2LG             V     C        08:39:36:07 08:39:37:21 01:01:04:17 01:01:06:07 
*FROM CLIP NAME:  V1-0033_A013C003_130724_R2LG 
000009  A013C004_130724_R2LG             V     C        08:51:54:02 08:51:56:07 01:01:09:19 01:01:12:00 
*FROM CLIP NAME:  V1-0037_A013C004_130724_R2LG 
000010  B017C002_130724_R2M9             V     C        14:56:11:14 14:56:12:16 01:01:19:10 01:01:20:08 
M2      B017C002_130724_R2M9                      026.7 14:56:11:14 
*FROM CLIP NAME:  V1-0002_B017C002_130724_R2M9 
000011  AA089701                         V     C        12:43:49:16 12:43:58:20 01:01:50:01 01:01:59:05 
*FROM CLIP NAME:  V1-0074_AA089701 
000012  A016C007_130725_R2LG             V     C        18:27:30:14 18:27:33:00 01:02:11:22 01:02:14:08 
*FROM CLIP NAME:  V1-0079_A016C007_130725_R2LG 
000013  B019C004_130724_R2M9             V     C        18:27:33:00 18:27:34:13 01:02:14:08 01:02:15:21 
*FROM CLIP NAME:  V1-0072_B019C004_130724_R2M9 
000014  AA091101                         V     C        18:27:35:10 18:27:36:09 01:02:15:21 01:02:16:20 
*FROM CLIP NAME:  V1-0081_AA091101 
000015  B019C004_130724_R2M9             V     C        18:27:36:23 18:27:37:22 01:02:16:20 01:02:17:19 
*FROM CLIP NAME:  V1-0082_B019C004_130724_R2M9 
000016  AA091801                         V     C        19:10:27:14 19:10:29:13 01:02:22:02 01:02:23:19 
M2      AA091801                                  026.4 19:10:27:14 
*FROM CLIP NAME:  V1-0085_AA091801 
000017  B031C003_130729_R2M9             V     C        08:17:21:04 08:17:23:12 01:07:13:15 01:07:15:23 
*FROM CLIP NAME:  V1-0184_B031C003_130729_R2M9 
000018  B001C010_130722_R2M9             V     C        08:52:02:09 08:52:07:07 01:08:28:12 01:08:33:10 
*FROM CLIP NAME:  V1-0203_B001C010_130722_R2M9 
000019  B031C003_130729_R2M9             V     C        08:17:40:04 08:17:43:17 01:08:37:03 01:08:40:16 
*FROM CLIP NAME:  V1-0197_B031C003_130729_R2M9 
000020  B002C004_130722_R2M9             V     C        10:35:07:04 10:35:07:18 01:11:10:02 01:11:10:16 
*FROM CLIP NAME:  V1-0248_B002C004_130722_R2M9 
000021  A003C002_130722_R2LG_24FPS       V     C        01:09:34:13 01:09:36:01 01:11:10:16 01:11:12:04 
*FROM CLIP NAME:  V1-0249_A003C002_130722_R2LG_24FPS 
000022  B003C004_130722_R2M9_24FPS       V     C        01:09:11:23 01:09:13:21 01:11:13:23 01:11:15:21 
*FROM CLIP NAME:  V1-0251_B003C004_130722_R2M9_24FPS 
000023  B003C001_130722_R2M9_24FPS       V     C        00:24:39:18 00:24:42:10 01:11:15:21 01:11:18:13 
*FROM CLIP NAME:  V1-0252_B003C001_130722_R2M9_24FPS 
000024  A002C005_130722_R2LG             V     C        10:48:36:19 10:48:41:03 01:11:20:20 01:11:25:04 
*FROM CLIP NAME:  V1-0246_A002C005_130722_R2LG 
000025  A002C004_130722_R2LG             V     C        10:35:32:10 10:35:37:04 01:11:38:11 01:11:43:05 
*FROM CLIP NAME:  V1-0251_A002C004_130722_R2LG 
000026  A004C008_130722_R2LG             V     C        15:31:41:09 15:31:44:08 01:12:07:13 01:12:10:12 
*FROM CLIP NAME:  V1-0265_A004C008_130722_R2LG 
000027  A004C008_130722_R2LG             V     C        15:31:51:12 15:31:53:20 01:12:16:20 01:12:19:04 
*FROM CLIP NAME:  V1-0268_A004C008_130722_R2LG 
000028  A018C006_130725_R2LG             V     C        09:08:09:02 09:08:10:17 01:15:38:14 01:15:40:05 
*FROM CLIP NAME:  V1-0331_A018C006_130725_R2LG 
000029  A018C010_130725_R2LG             V     C        09:33:39:11 09:33:41:14 01:15:50:12 01:15:52:15 
*FROM CLIP NAME:  V1-0335_A018C010_130725_R2LG 
000030  A018C006_130725_R2LG             V     C        09:08:24:06 09:08:27:19 01:15:56:04 01:15:59:17 
*FROM CLIP NAME:  V1-0337_A018C006_130725_R2LG 
000031  A018C006_130725_R2LG             V     C        09:08:28:09 09:08:33:05 01:16:03:07 01:16:08:03 
*FROM CLIP NAME:  V1-0340_A018C006_130725_R2LG 
000032  B021C009_130725_R2M9             V     C        09:24:30:23 09:24:35:03 01:16:23:18 01:16:27:22 
*FROM CLIP NAME:  V1-0345_B021C009_130725_R2M9 
000033  A018C006_130725_R2LG             V     C        09:08:55:22 09:08:59:14 01:16:29:15 01:16:33:07 
*FROM CLIP NAME:  V1-0347_A018C006_130725_R2LG 
000034  B021C006_130725_R2M9             V     C        09:08:59:14 09:09:12:05 01:16:33:07 01:16:45:22 
*FROM CLIP NAME:  V1-0348_B021C006_130725_R2M9 
000035  A020C006_130725_R2LG             V     C        13:23:31:05 13:23:34:03 01:17:34:01 01:17:36:23 
*FROM CLIP NAME:  V1-0368_A020C006_130725_R2LG 
000036  A020C012_130725_R2LG             V     C        15:38:34:14 15:38:42:00 01:17:42:15 01:17:50:01 
*FROM CLIP NAME:  V1-0371_A020C012_130725_R2LG 
000037  A022C004_130726_R2LG             V     C        19:26:59:00 19:27:03:08 01:18:07:16 01:18:12:00 
*FROM CLIP NAME:  V1-0378_A022C004_130726_R2LG 
000038  A022C004_130726_R2LG             V     C        19:27:05:04 19:27:08:13 01:18:15:23 01:18:19:08 
*FROM CLIP NAME:  V1-0381_A022C004_130726_R2LG 
000039  A023C001_130726_R2LG             V     C        20:15:31:23 20:15:34:06 01:18:19:08 01:18:21:15 
*FROM CLIP NAME:  V1-0382_A023C001_130726_R2LG 
000040  B025C009_130725_R2M9             V     C        19:50:34:17 19:50:35:13 01:18:21:15 01:18:22:11 
*FROM CLIP NAME:  V1-0383_B025C009_130725_R2M9 
000041  A022C009_130726_R2LG             V     C        19:50:35:13 19:50:38:14 01:18:22:11 01:18:25:12 
*FROM CLIP NAME:  V1-0384_A022C009_130726_R2LG 
000042  B024C013_130725_R2M9             V     C        16:28:43:07 16:28:45:20 01:19:07:19 01:19:10:08 
*FROM CLIP NAME:  V1-0403_B024C013_130725_R2M9 
000043  B038C001_130730_R2M9             V     C        19:39:48:00 19:39:51:15 01:19:33:22 01:19:37:13 
*FROM CLIP NAME:  V1-0413_B038C001_130730_R2M9 
000044  A021C002_130726_R2LG             V     C        17:25:26:17 17:25:28:09 01:19:37:13 01:19:39:05 
*FROM CLIP NAME:  V1-0414_A021C002_130726_R2LG 
000045  A021C002_130726_R2LG             V     C        17:25:34:02 17:25:35:19 01:19:41:22 01:19:43:15 
*FROM CLIP NAME:  V1-0416_A021C002_130726_R2LG 
000046  A021C002_130726_R2LG             V     C        17:25:37:09 17:25:38:15 01:19:45:02 01:19:46:08 
*FROM CLIP NAME:  V1-0418_A021C002_130726_R2LG 
000047  MVI_0419                         V     C        00:01:25:21 00:01:27:17 01:19:58:05 01:20:00:01 
*FROM CLIP NAME:  V1-0427_MVI_0419 
000048  B025C001_130725_R2M9             V     C        18:05:52:02 18:05:53:07 01:20:01:10 01:20:02:15 
*FROM CLIP NAME:  V1-0429_B025C001_130725_R2M9 
000049  MVI_0419                         V     C        00:01:30:23 00:01:32:10 01:20:02:15 01:20:04:02 
*FROM CLIP NAME:  V1-0430_MVI_0419 
000050  MVI_0419                         V     C        00:01:35:03 00:01:36:07 01:20:06:19 01:20:07:23 
*FROM CLIP NAME:  V1-0432_MVI_0419 
000051  B025C001_130725_R2M9             V     C        18:06:21:22 18:06:26:16 01:20:07:23 01:20:12:17 
*FROM CLIP NAME:  V1-0433_B025C001_130725_R2M9 
000052  B024C021_130725_R2M9             V     C        18:01:18:17 18:01:20:11 01:20:12:17 01:20:14:11 
*FROM CLIP NAME:  V1-0434_B024C021_130725_R2M9 
000053  A012C005_130724_R2LG             V     C        19:49:43:09 19:49:46:10 01:22:02:14 01:22:05:15 
*FROM CLIP NAME:  V1-0455_A012C005_130724_R2LG 
000054  A010C026_130723_R2LG             V     C        14:50:27:14 14:50:36:15 01:24:41:11 01:24:50:12 
*FROM CLIP NAME:  V1-0489_A010C026_130723_R2LG 
000055  B012C022_130723_R2M9             V     C        15:14:42:22 15:14:48:10 01:24:56:14 01:25:02:02 
*FROM CLIP NAME:  V1-0492_B012C022_130723_R2M9 
000056  A011C001_130723_R2LG             V     C        15:03:13:01 15:03:15:23 01:25:02:02 01:25:05:00 
*FROM CLIP NAME:  V1-0493_A011C001_130723_R2LG 
000057  B012C020_130723_R2M9             V     C        15:03:19:21 15:03:30:11 01:25:08:22 01:25:19:12 
*FROM CLIP NAME:  V1-0496_B012C020_130723_R2M9 
000058  B013C009_130723_R2M9             V     C        16:37:41:01 16:37:45:22 01:25:46:17 01:25:51:14 
*FROM CLIP NAME:  V1-0502_B013C009_130723_R2M9 
000059  B013C009_130723_R2M9             V     C        16:37:45:03 16:37:46:14 01:26:08:12 01:26:09:23 
*FROM CLIP NAME:  V1-0507_B013C009_130723_R2M9 
000060  A012C001_130724_R2LG             V     C        19:35:29:03 19:35:33:08 01:26:36:18 01:26:40:23 
*FROM CLIP NAME:  V1-0517_A012C001_130724_R2LG 
000061  A012C001_130724_R2LG             V     C        19:35:35:23 19:35:39:13 01:26:43:11 01:26:47:01 
*FROM CLIP NAME:  V1-0519_A012C001_130724_R2LG 
000062  INSERT_PICTURE.01                V     C        01:00:32:08 01:00:34:06 01:26:53:05 01:26:55:03 
*FROM CLIP NAME:  INSERT PICTURE.01 
000063  INSERT_PHONE.0                   V     C        01:00:51:15 01:00:53:11 01:27:03:10 01:27:05:06 
*FROM CLIP NAME:  INSERT PHONE.0 
000064  B013C011_130723_R2M9             V     C        16:47:52:18 16:48:02:05 01:27:05:06 01:27:14:17 
*FROM CLIP NAME:  V1-0528_B013C011_130723_R2M9 
000065  A011C026_130724_R2LG             V     C        19:30:45:05 19:30:46:11 01:28:17:04 01:28:18:10 
*FROM CLIP NAME:  V1-0550_A011C026_130724_R2LG 
000066  A011C026_130724_R2LG             V     C        19:30:47:18 19:30:49:22 01:28:19:21 01:28:22:01 
*FROM CLIP NAME:  V1-0552_A011C026_130724_R2LG 
000067  A012C001_130724_R2LG             V     C        19:35:55:01 19:35:56:08 01:28:23:17 01:28:25:00 
*FROM CLIP NAME:  V1-0554_A012C001_130724_R2LG 
000068  A011C008_130724_R2LG             V     C        17:25:06:10 17:25:07:17 01:28:31:08 01:28:32:15 
*FROM CLIP NAME:  V1-0558_A011C008_130724_R2LG 
000069  B012C014_130723_R2M9             V     C        13:19:03:13 13:19:06:16 01:28:53:08 01:28:56:11 
*FROM CLIP NAME:  V1-0563_B012C014_130723_R2M9 
000070  A010C015_130723_R2LG             V     C        12:37:47:18 12:37:53:05 01:29:27:20 01:29:33:07 
*FROM CLIP NAME:  V1-0572_A010C015_130723_R2LG 
000071  B014C002_130723_R2M9             V     C        18:49:18:06 18:49:21:05 01:31:18:00 01:31:20:23 
*FROM CLIP NAME:  V1-0603_B014C002_130723_R2M9 
000072  A011C020_130724_R2LG             V     C        18:51:34:08 18:51:36:17 01:31:20:23 01:31:23:08 
*FROM CLIP NAME:  V1-0604_A011C020_130724_R2LG 
000073  A011C020_130724_R2LG             V     C        18:51:39:15 18:51:41:13 01:31:25:23 01:31:27:21 
*FROM CLIP NAME:  V1-0606_A011C020_130724_R2LG 
000074  A011C020_130724_R2LG             V     C        18:51:42:11 18:51:46:18 01:31:28:19 01:31:33:02 
*FROM CLIP NAME:  V1-0608_A011C020_130724_R2LG 
000075  138989761                        V     C        01:00:04:21 01:00:07:10 01:32:11:07 01:32:13:20 
*FROM CLIP NAME:  138989761.MOV 
000076  MVI_0373                         V     C        00:01:06:21 00:01:07:10 01:33:06:21 01:33:07:10 
*FROM CLIP NAME:  V1-0655_MVI_0373 
000077  B010C003_130723_R2M9             V     C        09:09:21:13 09:09:22:03 01:33:09:01 01:33:09:15 
*FROM CLIP NAME:  V1-0658_B010C003_130723_R2M9 
000078  B010C003_130723_R2M9             V     C        09:09:22:05 09:09:22:23 01:33:10:04 01:33:10:22 
*FROM CLIP NAME:  V1-0660_B010C003_130723_R2M9 
000079  A009C002_130723_R2LG             V     C        00:55:10:20 00:55:12:19 01:33:14:08 01:33:16:07 
*FROM CLIP NAME:  V1-0663_A009C002_130723_R2LG 
000080  A009C002_130723_R2LG             V     C        00:55:13:05 00:55:14:09 01:33:17:12 01:33:18:16 
*FROM CLIP NAME:  V1-0665_A009C002_130723_R2LG 
000081  A010C001_130723_R2LG             V     C        11:03:20:23 11:03:22:12 01:33:20:03 01:33:21:16 
*FROM CLIP NAME:  V1-0667_A010C001_130723_R2LG 
000082  B011C002_130723_R2M9_24FPS       V     C        00:55:03:05 00:55:05:04 01:33:21:16 01:33:23:15 
*FROM CLIP NAME:  V1-0668_B011C002_130723_R2M9_24FPS 
000083  MVI_0381                         V     C        00:00:16:13 00:00:18:16 01:33:23:15 01:33:25:18 
*FROM CLIP NAME:  V1-0669_MVI_0381 
000084  B012C006_130723_R2M9             V     C        11:26:27:16 11:26:29:17 01:33:39:17 01:33:41:18 
*FROM CLIP NAME:  V1-0673_B012C006_130723_R2M9 
000085  B012C007_130723_R2M9             V     C        11:29:27:14 11:29:30:12 01:33:48:06 01:33:51:04 
*FROM CLIP NAME:  V1-0677_B012C007_130723_R2M9 
000086  B044C005_130731_R2M9             V     C        17:38:12:21 17:38:17:06 01:34:21:21 01:34:26:06 
*FROM CLIP NAME:  V1-0007_B044C005_130731_R2M9 
000087  B032C003_130729_R2M9             V     C        11:32:52:09 11:33:04:21 01:34:46:23 01:34:59:11 
*FROM CLIP NAME:  V1-0687_B032C003_130729_R2M9 
000088  A031C018_130730_R2LG             V     C        18:54:42:01 18:54:44:10 01:35:36:08 01:35:38:17 
*FROM CLIP NAME:  V1-0696_A031C018_130730_R2LG 
000089  A032C002_130730_R2LG             V     C        19:19:21:14 19:19:31:23 01:35:44:17 01:35:55:02 
*FROM CLIP NAME:  V1-0699_A032C002_130730_R2LG 
000090  B032C018_130729_R2M9             V     C        16:08:14:10 16:08:15:22 01:37:07:00 01:37:08:12 
*FROM CLIP NAME:  V1-0725_B032C018_130729_R2M9 
000091  B032C016_130729_R2M9             V     C        15:47:12:05 15:47:12:19 01:37:08:12 01:37:09:02 
*FROM CLIP NAME:  V1-0726_B032C016_130729_R2M9 
000092  A030C029_130730_R2LG             V     C        16:26:26:13 16:26:27:10 01:37:09:02 01:37:09:23 
*FROM CLIP NAME:  V1-0727_A030C029_130730_R2LG 
000093  B032C017_130729_R2M9             V     C        15:55:41:19 15:55:42:22 01:37:10:07 01:37:11:10 
*FROM CLIP NAME:  V1-0729_B032C017_130729_R2M9 
000094  A031C003_130730_R2LG             V     C        17:22:51:18 17:22:53:06 01:37:24:07 01:37:25:19 
*FROM CLIP NAME:  V1-0734_A031C003_130730_R2LG 
